<mxfile host="app.diagrams.net" modified="2023-12-20T05:04:59.135Z" agent="Mozilla/5.0 (Windows NT 10.0; Win64; x64) AppleWebKit/537.36 (KHTML, like Gecko) Chrome/120.0.0.0 Safari/537.36" etag="D_uxvxTiIL5Nx5Nv-ugA" version="22.1.11" type="device">
  <diagram name="Страница — 1" id="4DGSqzLHIGQ_121klUOv">
    <mxGraphModel dx="1000" dy="1688" grid="1" gridSize="10" guides="1" tooltips="1" connect="1" arrows="1" fold="1" page="1" pageScale="1" pageWidth="827" pageHeight="1169" math="0" shadow="0">
      <root>
        <mxCell id="0" />
        <mxCell id="1" parent="0" />
        <mxCell id="l5O3yD0M4jDvnTVSVEoQ-1" value="Admin&lt;br&gt;" style="shape=umlActor;verticalLabelPosition=bottom;verticalAlign=top;html=1;outlineConnect=0;" vertex="1" parent="1">
          <mxGeometry x="210" y="140" width="80" height="120" as="geometry" />
        </mxCell>
        <mxCell id="l5O3yD0M4jDvnTVSVEoQ-2" value="Создавать/изменять/удалять товары" style="ellipse;whiteSpace=wrap;html=1;" vertex="1" parent="1">
          <mxGeometry x="110" y="-10" width="140" height="80" as="geometry" />
        </mxCell>
        <mxCell id="l5O3yD0M4jDvnTVSVEoQ-4" value="Создавать/изменять/удалять пользователей" style="ellipse;whiteSpace=wrap;html=1;" vertex="1" parent="1">
          <mxGeometry x="280" y="-10" width="150" height="95" as="geometry" />
        </mxCell>
        <mxCell id="l5O3yD0M4jDvnTVSVEoQ-5" value="Изменять/Удалять комментарии" style="ellipse;whiteSpace=wrap;html=1;" vertex="1" parent="1">
          <mxGeometry y="70" width="130" height="80" as="geometry" />
        </mxCell>
        <mxCell id="l5O3yD0M4jDvnTVSVEoQ-7" value="Создавать/изменять/удалять категории" style="ellipse;whiteSpace=wrap;html=1;" vertex="1" parent="1">
          <mxGeometry y="180" width="156" height="80" as="geometry" />
        </mxCell>
        <mxCell id="l5O3yD0M4jDvnTVSVEoQ-9" value="" style="endArrow=none;html=1;rounded=0;" edge="1" parent="1" source="l5O3yD0M4jDvnTVSVEoQ-7" target="l5O3yD0M4jDvnTVSVEoQ-1">
          <mxGeometry width="50" height="50" relative="1" as="geometry">
            <mxPoint x="210" y="210" as="sourcePoint" />
            <mxPoint x="260" y="160" as="targetPoint" />
          </mxGeometry>
        </mxCell>
        <mxCell id="l5O3yD0M4jDvnTVSVEoQ-10" value="" style="endArrow=none;html=1;rounded=0;" edge="1" parent="1" source="l5O3yD0M4jDvnTVSVEoQ-5">
          <mxGeometry width="50" height="50" relative="1" as="geometry">
            <mxPoint x="210" y="210" as="sourcePoint" />
            <mxPoint x="190" y="150" as="targetPoint" />
          </mxGeometry>
        </mxCell>
        <mxCell id="l5O3yD0M4jDvnTVSVEoQ-11" value="" style="endArrow=none;html=1;rounded=0;exitX=0.435;exitY=0.977;exitDx=0;exitDy=0;exitPerimeter=0;" edge="1" parent="1" source="l5O3yD0M4jDvnTVSVEoQ-2">
          <mxGeometry width="50" height="50" relative="1" as="geometry">
            <mxPoint x="210" y="210" as="sourcePoint" />
            <mxPoint x="250" y="130" as="targetPoint" />
          </mxGeometry>
        </mxCell>
        <mxCell id="l5O3yD0M4jDvnTVSVEoQ-12" value="" style="endArrow=none;html=1;rounded=0;" edge="1" parent="1" target="l5O3yD0M4jDvnTVSVEoQ-4">
          <mxGeometry width="50" height="50" relative="1" as="geometry">
            <mxPoint x="310" y="170" as="sourcePoint" />
            <mxPoint x="320" y="160" as="targetPoint" />
          </mxGeometry>
        </mxCell>
        <mxCell id="l5O3yD0M4jDvnTVSVEoQ-13" value="User" style="shape=umlActor;verticalLabelPosition=bottom;verticalAlign=top;html=1;outlineConnect=0;" vertex="1" parent="1">
          <mxGeometry x="640" y="120" width="80" height="110" as="geometry" />
        </mxCell>
        <mxCell id="l5O3yD0M4jDvnTVSVEoQ-14" value="Просматривать товары" style="ellipse;whiteSpace=wrap;html=1;" vertex="1" parent="1">
          <mxGeometry x="430" y="150" width="120" height="80" as="geometry" />
        </mxCell>
        <mxCell id="l5O3yD0M4jDvnTVSVEoQ-15" value="Добавление комментариев" style="ellipse;whiteSpace=wrap;html=1;" vertex="1" parent="1">
          <mxGeometry x="460" y="20" width="120" height="80" as="geometry" />
        </mxCell>
        <mxCell id="l5O3yD0M4jDvnTVSVEoQ-16" value="Оформления и просмотр заказов" style="ellipse;whiteSpace=wrap;html=1;" vertex="1" parent="1">
          <mxGeometry x="600" y="-30" width="120" height="80" as="geometry" />
        </mxCell>
        <mxCell id="l5O3yD0M4jDvnTVSVEoQ-17" value="" style="endArrow=none;html=1;rounded=0;" edge="1" parent="1">
          <mxGeometry width="50" height="50" relative="1" as="geometry">
            <mxPoint x="550" y="190" as="sourcePoint" />
            <mxPoint x="610" y="180" as="targetPoint" />
          </mxGeometry>
        </mxCell>
        <mxCell id="l5O3yD0M4jDvnTVSVEoQ-18" value="" style="endArrow=none;html=1;rounded=0;" edge="1" parent="1" source="l5O3yD0M4jDvnTVSVEoQ-15">
          <mxGeometry width="50" height="50" relative="1" as="geometry">
            <mxPoint x="560" y="140" as="sourcePoint" />
            <mxPoint x="630" y="100" as="targetPoint" />
          </mxGeometry>
        </mxCell>
        <mxCell id="l5O3yD0M4jDvnTVSVEoQ-19" value="" style="endArrow=none;html=1;rounded=0;entryX=0.629;entryY=0.965;entryDx=0;entryDy=0;entryPerimeter=0;" edge="1" parent="1" target="l5O3yD0M4jDvnTVSVEoQ-16">
          <mxGeometry width="50" height="50" relative="1" as="geometry">
            <mxPoint x="680" y="110" as="sourcePoint" />
            <mxPoint x="730" y="60" as="targetPoint" />
          </mxGeometry>
        </mxCell>
      </root>
    </mxGraphModel>
  </diagram>
</mxfile>
